<svg width="100" height="39" viewBox="0 0 100 39" fill="none" xmlns="http://www.w3.org/2000/svg">
<g clip-path="url(#clip0_302:22677)">
<path d="M21.5725 20.4793C21.2634 19.8342 21.1917 19.104 20.9005 18.4522C20.692 17.9628 20.3589 17.5366 19.9345 17.2159C19.5101 16.8953 19.0092 16.6913 18.4815 16.6244C15.6211 16.1585 15.0544 15.6097 14.873 13.1055C14.201 13.717 13.9927 14.7138 14.3332 15.7486C14.7812 17.0791 15.8765 17.9325 17.077 18.7277C19.4155 20.2732 20.7393 22.3115 20.9834 24.8762C21.057 25.6632 21.0314 26.4564 20.9073 27.237C28.4311 26.3276 34.2346 20.7144 34.2996 13.9074C34.3582 12.7796 34.2617 11.6491 34.0129 10.5476C33.6572 9.02308 32.9999 7.5852 32.0798 6.31866C29.7168 7.31766 27.3537 8.31665 24.9794 9.29324C24.3768 9.54187 24.1842 9.80394 24.1954 10.4132C24.238 12.512 24.8539 14.4786 25.6245 16.4452C26.0024 17.5012 26.2543 18.5981 26.3748 19.7132C26.3958 19.9539 26.3691 20.1963 26.296 20.4266C26.223 20.6568 26.1051 20.8704 25.9493 21.0549C25.5996 21.4591 25.1193 21.7278 24.5919 21.8142C24.3007 21.8456 22.968 22.2085 22.6656 21.8904C22.4416 21.653 21.7114 20.6495 21.4941 20.3225" fill="#00B4AA"/>
<path d="M18.1164 33.7639C18.1164 33.7281 18.0963 33.69 18.0851 33.6542C17.9539 33.3147 17.8462 32.9667 17.7625 32.6126C16.833 29.8172 15.4039 27.3399 12.4181 25.6488C13.267 27.0801 13.2984 28.0455 14.1182 29.432C14.004 29.526 14.6759 30.0412 14.5662 30.1353C11.4662 28.8809 8.26761 27.7789 5.28407 26.3275C3.86735 25.6708 2.64686 24.6552 1.7436 23.3814C0.840335 22.1077 0.285658 20.6199 0.134556 19.0657C0.134556 23.9935 0.118876 28.6973 0.145755 33.401C0.145755 35.0093 -0.389579 37.2985 0.571335 38.0421C1.69128 38.9067 4.1798 38.4901 6.07699 38.5035C11.1123 38.5416 16.1565 38.517 21.7204 38.517C21.0484 37.78 20.7505 37.4217 20.4145 37.0902C19.4276 36.1515 18.6452 35.0191 18.1164 33.7639Z" fill="#00B4AA"/>
<path d="M20.3494 1.9845L19.0749 4.76868L22.9634 3.09997L21.3596 6.03422L23.4472 7.4252L23.6533 7.50807L31.4929 5.56161C28.8431 2.34288 24.594 0.125388 20.159 0.0537118C13.9926 -0.0426036 7.81724 0.0178735 1.6441 0.0223533C1.13792 0.0550302 0.633923 0.115599 0.134412 0.203785C0.134412 2.7707 0.224007 5.2525 0.103053 7.72982C0.022417 9.29775 0.154571 15.5246 0.188169 17.0007C0.548792 14.5145 1.99352 12.1379 4.60076 10.5969C5.74086 9.92492 6.93472 9.31791 8.10395 8.68178L8.01435 8.45779L2.66325 10.346C4.06318 7.73206 9.67187 4.74629 14.4428 4.58501L13.5469 5.83711C15.5538 4.25575 17.5294 2.7035 20.3494 1.9845Z" fill="#00B4AA"/>
<path d="M50.3082 6.10239C51.0475 6.41828 51.678 6.94391 52.1217 7.6143C52.5567 8.30872 52.7774 9.11591 52.7562 9.93503C52.7746 10.7507 52.5541 11.554 52.1217 12.246C51.6812 12.9193 51.0498 13.4457 50.3082 13.7579C49.4298 14.1265 48.4835 14.3053 47.5312 14.2827H45.1086V17.6003H42.3237V5.56774H47.5312C48.4845 5.54506 49.4315 5.72739 50.3082 6.10239V6.10239ZM49.2859 11.4724C49.5054 11.2834 49.6783 11.0464 49.7914 10.7798C49.9045 10.5132 49.9547 10.2242 49.9381 9.93503C49.9381 9.26003 49.7207 8.74104 49.2859 8.37808C48.8512 8.01512 48.2147 7.83821 47.3765 7.84735H45.1086V12.0149H47.3765C48.2134 12.0149 48.8498 11.834 49.2859 11.4724V11.4724Z" fill="#2D2D2D"/>
<path d="M57.3545 16.9991C56.3814 16.4869 55.5682 15.7165 55.0044 14.7724C54.4315 13.8086 54.1366 12.7051 54.1525 11.584C54.1366 10.463 54.4315 9.35946 55.0044 8.39573C55.5683 7.45221 56.3815 6.68243 57.3545 6.17096C58.3996 5.6395 59.5554 5.36249 60.7279 5.36249C61.9003 5.36249 63.0562 5.6395 64.1012 6.17096C65.0843 6.6888 65.9048 7.46858 66.472 8.42397C67.0393 9.37936 67.331 10.4731 67.315 11.584C67.3307 12.6952 67.0389 13.7891 66.4717 14.7447C65.9045 15.7004 65.0841 16.4806 64.1012 16.9991C63.0558 17.5295 61.9001 17.8059 60.7279 17.8059C59.5556 17.8059 58.3999 17.5295 57.3545 16.9991ZM62.6579 14.9447C63.2261 14.6217 63.6932 14.147 64.0072 13.5738C64.34 12.9627 64.5086 12.2758 64.4968 11.5801C64.5082 10.8845 64.3395 10.1977 64.0072 9.58646C63.6927 9.01361 63.2257 8.53909 62.6579 8.21556C62.0671 7.89434 61.4053 7.72607 60.7328 7.72607C60.0603 7.72607 59.3985 7.89434 58.8076 8.21556C58.2395 8.5386 57.7723 9.01324 57.4583 9.58646C57.1251 10.1974 56.9564 10.8844 56.9687 11.5801C56.9559 12.2759 57.1246 12.9631 57.4583 13.5738C57.7716 14.1475 58.239 14.6223 58.8076 14.9447C59.3985 15.2659 60.0603 15.4342 60.7328 15.4342C61.4053 15.4342 62.0671 15.2659 62.6579 14.9447V14.9447Z" fill="#2D2D2D"/>
<path d="M80.4466 5.56799V17.6006H78.1611L72.1624 10.2956V17.6006H69.4207V5.56799H71.7238L77.7048 12.8729V5.56799H80.4466Z" fill="#2D2D2D"/>
<path d="M89.0748 13.3312V17.6006H86.2899V13.3038L81.6328 5.56799H84.5881L87.8038 10.9145L91.0176 5.56799H93.7496L89.0748 13.3312Z" fill="#2D2D2D"/>
<path d="M50.453 28.9671H52.999V33.8495C52.3156 34.3578 51.5479 34.7417 50.7311 34.9834C49.8907 35.2431 49.0159 35.3752 48.1362 35.3751C46.9638 35.3932 45.8053 35.1185 44.7658 34.5761C43.7934 34.0674 42.9801 33.3003 42.4157 32.3591C41.8579 31.3827 41.5645 30.2777 41.5645 29.1532C41.5645 28.0287 41.8579 26.9236 42.4157 25.9473C42.9821 25.0028 43.8007 24.2351 44.7795 23.7303C45.8311 23.1857 47.0011 22.9098 48.1852 22.9274C49.1679 22.9143 50.1436 23.0953 51.0562 23.4601C51.8899 23.7972 52.6316 24.3274 53.2203 25.0072L51.4342 26.6562C51.041 26.2228 50.5603 25.8777 50.0238 25.6438C49.4874 25.4098 48.9075 25.2923 48.3223 25.299C47.6111 25.2855 46.908 25.4512 46.2777 25.7808C45.6923 26.0894 45.2087 26.5607 44.8853 27.138C44.5573 27.7545 44.3857 28.4421 44.3857 29.1405C44.3857 29.8388 44.5573 30.5264 44.8853 31.1429C45.2083 31.7207 45.6875 32.1957 46.2679 32.5138C46.8885 32.8475 47.5845 33.0161 48.289 33.0035C49.0422 33.0148 49.7863 32.837 50.453 32.4864V28.9671Z" fill="#2D2D2D"/>
<path d="M58.0188 34.57C57.0462 34.058 56.2331 33.2884 55.6687 32.3452C55.1117 31.375 54.8186 30.2757 54.8186 29.1569C54.8186 28.0381 55.1117 26.9389 55.6687 25.9686C56.2331 25.0249 57.0461 24.2546 58.0188 23.7419C59.0642 23.2115 60.2199 22.9351 61.3922 22.9351C62.5644 22.9351 63.7202 23.2115 64.7656 23.7419C65.7474 24.2647 66.5686 25.0447 67.1413 25.9984C67.7139 26.9521 68.0164 28.0435 68.0164 29.1559C68.0164 30.2683 67.7139 31.3598 67.1413 32.3135C66.5686 33.2672 65.7474 34.0472 64.7656 34.57C63.7205 35.1015 62.5646 35.3785 61.3922 35.3785C60.2197 35.3785 59.0639 35.1015 58.0188 34.57V34.57ZM63.3281 32.5234C63.8959 32.1999 64.3629 31.7254 64.6774 31.1525C64.9987 30.5371 65.1665 29.8531 65.1665 29.1589C65.1665 28.4646 64.9987 27.7806 64.6774 27.1652C64.3634 26.592 63.8963 26.1173 63.3281 25.7943C62.7373 25.4731 62.0755 25.3048 61.403 25.3048C60.7305 25.3048 60.0687 25.4731 59.4778 25.7943C58.9091 26.1167 58.4418 26.5915 58.1285 27.1652C57.8072 27.7806 57.6395 28.4646 57.6395 29.1589C57.6395 29.8531 57.8072 30.5371 58.1285 31.1525C58.4425 31.7258 58.9097 32.2004 59.4778 32.5234C60.0687 32.8447 60.7305 33.0129 61.403 33.0129C62.0755 33.0129 62.7373 32.8447 63.3281 32.5234V32.5234Z" fill="#2D2D2D"/>
<path d="M70.0823 23.1407H72.8672V32.9035H78.8991V35.1733H70.0862L70.0823 23.1407Z" fill="#2D2D2D"/>
<path d="M80.4639 23.1406H85.9298C87.1266 23.1162 88.3124 23.3724 89.3923 23.8887C90.3571 24.3525 91.1686 25.0831 91.7307 25.9941C92.2999 26.9491 92.5884 28.0453 92.563 29.1569C92.5897 30.2711 92.3012 31.3702 91.7307 32.3276C91.168 33.238 90.3566 33.9685 89.3923 34.4329C88.3121 34.9483 87.1265 35.2045 85.9298 35.181H80.4639V23.1406ZM85.7928 32.8858C86.9952 32.8858 87.9549 32.5509 88.6716 31.8811C89.3884 31.2113 89.7462 30.3032 89.7449 29.1569C89.7449 28.0119 89.3871 27.1038 88.6716 26.4327C87.9562 25.7617 86.9965 25.4261 85.7928 25.4261H83.2468V32.8858H85.7928Z" fill="#2D2D2D"/>
</g>
<defs>
<clipPath id="clip0_302:22677">
<rect width="100" height="38.6001" fill="white"/>
</clipPath>
</defs>
</svg>
